<svg width="1248" height="822" viewBox="0 0 1248 822" fill="none" xmlns="http://www.w3.org/2000/svg">
<ellipse cx="467.196" cy="669.582" rx="6.19639" ry="6.58177" fill="white"/>
<ellipse cx="664.229" cy="66.6787" rx="7.22914" ry="7.67874" fill="white"/>
<ellipse cx="764.798" cy="313.679" rx="7.22914" ry="7.67874" fill="white"/>
<ellipse cx="1205.2" cy="240.582" rx="6.19639" ry="6.58177" fill="white"/>
<path d="M867.007 437.227C867.007 441.771 863.539 445.454 859.261 445.454C854.983 445.454 851.516 441.771 851.516 437.227C851.516 432.683 854.983 429 859.261 429C863.539 429 867.007 432.683 867.007 437.227Z" fill="white"/>
<path d="M910.426 454.13C910.426 458.068 907.42 461.261 903.713 461.261C900.005 461.261 897 458.068 897 454.13C897 450.192 900.005 447 903.713 447C907.42 447 910.426 450.192 910.426 454.13Z" fill="white"/>
<ellipse cx="970.62" cy="380.167" rx="6.19639" ry="6.58177" fill="white"/>
<ellipse cx="1078.71" cy="292.13" rx="6.71278" ry="7.13026" fill="white"/>
<ellipse cx="1107.71" cy="227.13" rx="6.71278" ry="7.13026" fill="white"/>
<ellipse cx="880.229" cy="143.679" rx="7.22914" ry="7.67874" fill="white"/>
<ellipse cx="1023.71" cy="141.13" rx="6.71278" ry="7.13026" fill="white"/>
<ellipse cx="1023.2" cy="24.5818" rx="6.19639" ry="6.58177" fill="white"/>
<ellipse cx="1017.16" cy="166.485" rx="5.16367" ry="5.48481" fill="white"/>
<ellipse cx="767.229" cy="191.679" rx="7.22914" ry="7.67874" fill="white"/>
<ellipse cx="1092.6" cy="354.51" rx="6.71278" ry="7.13026" fill="white"/>
<ellipse cx="1078.71" cy="450.13" rx="6.71278" ry="7.13026" fill="white"/>
</svg>
